<svg width="60" height="60" viewBox="0 0 60 60" fill="none" xmlns="http://www.w3.org/2000/svg">
<rect width="60" height="60" fill="#D70C19"/>
<mask id="mask0_150_688" style="mask-type:luminance" maskUnits="userSpaceOnUse" x="10" y="26" width="40" height="8">
<path d="M10.3125 26.2724H49.6875V33.8445H10.3125V26.2724Z" fill="white"/>
</mask>
<g mask="url(#mask0_150_688)">
<path d="M19.1946 26.4084C18.5813 26.3975 15.9197 26.3903 14.3674 26.3903H10.3125V27.7786C13.5761 27.7786 17.4492 27.7713 19.1454 27.7966C19.4483 27.8002 19.7474 27.829 19.9859 28.031C20.2093 28.2185 20.285 28.5141 20.1865 28.7701C20.0275 29.1848 19.5846 29.2858 19.1454 29.293C18.4715 29.3038 16.6276 29.3074 15.2495 29.3074C11.8686 29.311 13.3338 29.3074 10.3125 29.3074V30.692C13.5761 30.692 17.4568 30.6848 19.1454 30.71C19.6716 30.7173 20.2282 30.8903 20.2282 31.4528C20.2282 32.0153 19.6716 32.1956 19.1454 32.2028C17.4606 32.2281 13.5761 32.2209 10.3125 32.2209V33.6091C13.5874 33.6091 17.8733 33.6199 19.1946 33.5911C19.8912 33.5766 20.9248 33.4072 21.523 32.5418C22.0871 31.7305 21.9508 30.674 21.2088 29.9997C21.9508 29.3218 22.0871 28.2653 21.523 27.4576C20.921 26.5923 19.8912 26.4264 19.1946 26.4084ZM45.2124 26.4293C44.3492 26.4112 43.043 26.4004 41.892 26.3968C39.0828 26.386 40.7713 26.3896 38.0946 26.3896V27.7814C40.9455 27.7814 42.9407 27.7598 45.1404 27.8175C45.7879 27.8355 46.4807 27.9004 47.1054 28.3115C47.696 28.7009 48.0481 29.3247 48.0481 29.9954C48.0481 30.6661 47.7074 31.2899 47.1168 31.6829C46.4921 32.0939 45.7992 32.1588 45.1518 32.1769C42.9521 32.2346 40.9531 32.2129 38.106 32.2129L38.0946 33.6048C40.9606 33.6048 43.0203 33.6156 45.2124 33.5651C46.0907 33.5471 47.1698 33.4497 48.1693 32.7682C49.1158 32.1228 49.6875 31.1096 49.6875 29.9918C49.6875 28.874 49.1158 27.8608 48.1693 27.2153V27.2262C47.1736 26.5447 46.0907 26.4473 45.2124 26.4293ZM25.3091 28.5322C25.3053 27.8615 25.3091 27.0682 25.3091 26.3903H23.6243C23.6243 27.0754 23.6091 28.4673 23.6394 29.1415C23.6962 30.4468 24.143 30.8543 25.5438 30.9012C26.5168 30.9336 27.2854 30.9228 28.6294 30.9192V29.5201C27.5542 29.5201 27.115 29.5201 26.32 29.5093C25.5552 29.4949 25.3129 29.2569 25.3091 28.5322ZM31.5409 29.5201C32.3284 29.5201 33.2901 29.5165 33.6535 29.5093C34.4183 29.4949 34.6606 29.2641 34.6644 28.5574H34.6758V26.3903H36.3568V28.4961C36.353 28.7413 36.3492 28.9649 36.3416 29.1415C36.2849 30.4576 35.8343 30.8579 34.3464 30.9012C33.8618 30.9192 32.5745 30.9192 31.5447 30.9192H31.3441V33.6091H29.3639V29.5201H31.5409Z" fill="white"/>
</g>
</svg>
