<svg width="60" height="60" viewBox="0 0 60 60" fill="none" xmlns="http://www.w3.org/2000/svg">
<rect width="60" height="60" fill="#007EC1"/>
<g clip-path="url(#clip0_150_781)">
<path d="M44.0447 9.04019C44.0447 9.04019 17.6912 20.8143 17.6905 20.8151C15.5298 21.7765 15 23.2204 15 24.2378V36.684V50.5962C15 50.867 15.2732 51.0893 15.5611 50.9642L29.2341 44.859C30.0526 44.4582 31.1333 43.5242 31.1333 41.6628V27.0278L42.5556 21.9203C43.7402 21.3586 44.5774 19.7986 44.5774 17.7378C44.5774 17.7337 44.5778 10.7652 44.5778 9.41401C44.5778 9.08191 44.3449 8.91844 44.0447 9.04019Z" fill="white"/>
<path d="M15.5611 50.9642L29.2341 44.859C30.0526 44.4582 31.1333 43.5242 31.1333 41.6628V27.0279C31.1333 27.0279 17.6864 33.1119 17.6872 33.1119H17.6876C15.4556 34.1055 15.0224 35.5894 15 36.684V50.5962C15 50.8671 15.2732 51.0894 15.5611 50.9642Z" fill="#00406E"/>
<path d="M15 36.684C15.0224 35.5894 15.4556 34.1055 17.6876 33.1118H17.6872C17.6864 33.1118 31.1333 27.0278 31.1333 27.0278V29.4233L17.6876 34.4377C15.6865 35.1906 15.0224 36.6509 15 37.7455V36.684Z" fill="#000824"/>
</g>
<defs>
<clipPath id="clip0_150_781">
<rect width="30" height="42" fill="white" transform="translate(15 9)"/>
</clipPath>
</defs>
</svg>
