<svg width="60" height="60" viewBox="0 0 60 60" fill="none" xmlns="http://www.w3.org/2000/svg">
<rect width="60" height="60" fill="#009999"/>
<g clip-path="url(#clip0_150_710)">
<path d="M19.0792 27.6599C17.3308 26.8543 16.2623 26.3271 15.874 26.0783C15.4071 25.7704 15.1736 25.3726 15.1736 24.8852C15.1736 23.582 16.3305 22.9304 18.6444 22.9304C20.2881 22.9304 22.0677 23.3221 23.9833 24.1055V20.0919C21.4075 19.5786 19.4391 19.3219 18.0781 19.3219C15.6098 19.3219 13.6076 19.8639 12.0713 20.9479C10.517 22.0421 9.73987 23.6338 9.73987 25.7232C9.73987 27.3455 10.2736 28.6884 11.3411 29.7521C12.1648 30.5586 13.9345 31.5334 16.6502 32.6766C18.163 33.3139 19.1036 33.8115 19.4721 34.1694C19.6451 34.3259 19.7829 34.5189 19.876 34.7352C19.969 34.9515 20.0152 35.1858 20.0113 35.4222C20.0113 36.7559 18.7789 37.4227 16.3143 37.4227C14.5288 37.4227 12.4768 37.0491 10.1585 36.3018V40.4735C12.2554 40.9802 14.4023 41.2381 16.5568 41.2421C19.0639 41.2421 21.105 40.7552 22.6801 39.7812C24.6236 38.5779 25.5954 36.8317 25.5954 34.5426C25.5954 32.9499 25.0996 31.6513 24.1079 30.6469C23.2734 29.8006 21.5972 28.805 19.0792 27.6599Z" fill="white"/>
<path d="M44.7164 19.2275C42.9147 19.1234 41.0858 19.0541 39.2434 19.0541C37.401 19.0541 35.5721 19.1234 33.7704 19.2275C32.1984 19.3125 30.7178 20.0102 29.6322 21.1775C28.5465 22.3448 27.938 23.8932 27.9316 25.5053V34.1069C27.938 35.7189 28.5465 37.2673 29.6322 38.4346C30.7178 39.6019 32.1984 40.2996 33.7704 40.3846C35.5721 40.4887 37.401 40.558 39.2434 40.558C41.0858 40.558 42.9147 40.4887 44.7164 40.3846C46.2884 40.2996 47.769 39.6019 48.8547 38.4346C49.9403 37.2673 50.5488 35.7189 50.5552 34.1069V33.6213H47.9136V34.1069C47.9082 35.0201 47.5634 35.8969 46.9495 36.5592C46.3355 37.2215 45.4983 37.6195 44.6081 37.6724C42.8334 37.7833 41.0452 37.8527 39.2434 37.8527C37.4416 37.8527 35.6534 37.7833 33.8788 37.6724C32.9885 37.6195 32.1513 37.2215 31.5374 36.5592C30.9234 35.8969 30.5787 35.0201 30.5733 34.1069V25.5053C30.5787 24.5921 30.9234 23.7152 31.5374 23.0529C32.1513 22.3907 32.9885 21.9926 33.8788 21.9398C35.6534 21.8288 37.4416 21.7594 39.2434 21.7594C41.0452 21.7594 42.8334 21.8288 44.6081 21.9398C45.4983 21.9926 46.3355 22.3907 46.9495 23.0529C47.5634 23.7152 47.9082 24.5921 47.9136 25.5053V28.4187H37.0081V31.1934H50.5552V25.5053C50.5488 23.8932 49.9403 22.3448 48.8547 21.1775C47.769 20.0102 46.2884 19.3125 44.7164 19.2275Z" fill="#641E8C"/>
</g>
<defs>
<clipPath id="clip0_150_710">
<rect width="42" height="23" fill="white" transform="translate(9 19)"/>
</clipPath>
</defs>
</svg>
