<svg width="60" height="60" viewBox="0 0 60 60" fill="none" xmlns="http://www.w3.org/2000/svg">
<g clip-path="url(#clip0_150_729)">
<rect width="60" height="60" fill="white"/>
<rect width="60" height="60" fill="#001965"/>
<g clip-path="url(#clip1_150_729)">
<path d="M17.008 26.0329C17.5049 26.7503 18.4985 25.5846 18.4534 25.3604C18.363 25.1363 16.5112 25.3604 17.008 26.0329Z" fill="white"/>
<path d="M21.0278 21.5048C23.6926 21.5048 25.8154 19.3976 25.8154 16.7524C25.8154 14.1072 23.6474 12 21.0278 12C18.4082 12 16.1951 14.1072 16.1951 16.7524C16.1951 19.3527 18.363 21.5048 21.0278 21.5048ZM21.1181 13.1208C22.8796 13.1208 24.3249 14.5107 24.3249 16.2592C24.3249 18.0077 22.8796 19.3976 21.1181 19.3976C19.3567 19.3976 17.9114 18.0077 17.9114 16.2592C17.9565 14.5107 19.3567 13.1208 21.1181 13.1208Z" fill="white"/>
<path d="M45.1464 29.8887C44.514 26.8848 41.8493 26.7951 40.4491 26.8848C39.0038 26.9745 36.2487 27.4228 33.4484 27.4228C29.6545 27.4228 25.3637 26.3468 22.1118 24.8673C21.5246 24.5983 21.8408 24.5086 22.0666 24.3741C23.2861 23.7016 24.3701 23.1188 25.0024 22.0427C25.4992 21.2357 25.3186 20.9667 24.7766 21.4151C23.2861 22.6256 21.1633 23.2981 18.8147 22.4911C16.4661 21.6392 15.5176 19.3976 15.3369 18.8596C15.1111 18.2767 14.8401 18.2319 14.8401 19.0837C14.8401 21.1909 15.7886 22.4463 16.1047 22.8049C16.4209 23.1636 16.5564 23.5223 16.3757 23.7464C15.9241 24.2844 15.4272 24.9121 15.3821 25.1363C15.3821 25.4053 15.3821 25.5398 15.2917 25.8088C15.2014 26.1226 14.7949 26.5261 14.2078 27.2435C13.8916 27.647 14.0723 28.0953 14.3433 28.4091C14.6594 28.7678 14.8852 29.2161 15.2917 29.3955C15.6982 29.5748 16.1047 29.4403 16.5564 29.53C17.008 29.6196 17.6404 29.8887 18.092 30.6957C18.7695 31.9062 19.4922 33.7444 20.802 35.3135C21.3891 35.986 21.3891 37.2414 21.3891 37.6449C21.4343 41.2316 19.4922 44.6838 18.2727 46.8358C18.0017 47.329 18.0469 47.7773 18.4533 47.7773C18.905 47.7773 20.5761 47.7773 20.8471 47.7773C21.1633 47.7773 21.344 47.4635 21.344 47.1048C21.5246 44.1458 23.2409 38.7209 24.5056 37.8242C26.6735 39.1244 28.7963 41.9938 27.7575 46.9255C27.7123 47.1945 27.4414 47.7773 28.0737 47.7773H30.1513C30.4223 47.7773 30.8288 47.6876 30.8288 47.1945C30.7385 45.2666 29.0673 41.1868 28.6608 38.7657C28.3898 37.2414 29.6093 34.5514 34.2614 36.6137C36.068 35.0445 38.3715 35.986 37.3778 39.0347C36.3842 42.0386 35.526 43.3836 32.1838 46.9255C31.7773 47.329 31.7773 47.7773 32.3644 47.7773C32.6806 47.7773 34.2162 47.7773 34.5324 47.7773C34.984 47.7773 35.1647 47.6428 35.3454 47.2841C35.4809 46.8806 37.0165 42.0386 40.0426 39.7969C40.2684 39.6176 40.4943 38.8554 40.9459 37.1069C42.4364 38.9899 42.6171 42.4421 40.0878 46.9255C39.8168 47.3738 39.9975 47.7325 40.2684 47.7325H42.2106C42.5719 47.7325 42.6622 47.5531 42.8429 47.0151C43.0236 46.3426 43.0687 46.0288 43.2946 45.4011C43.4301 44.9976 43.5204 44.9528 45.056 44.9528C45.5529 44.9528 45.5077 44.6838 45.5077 44.2803C45.5529 38.2277 45.598 31.9958 45.1464 29.8887ZM39.6361 27.8711C40.133 28.7678 40.1781 29.3058 40.0426 29.799C39.9071 30.2473 39.2296 30.5163 39.0941 30.4715C39.0941 29.4851 38.8231 28.723 38.3263 28.0505C38.778 28.0056 39.1845 27.916 39.6361 27.8711ZM35.6164 28.3643C35.9325 29.4403 35.8874 30.875 35.4809 31.2785C34.8485 31.951 31.8676 31.8165 31.0095 31.682C30.7836 31.6372 30.5578 31.5923 30.4223 31.0095C30.2868 30.2922 30.2416 29.0368 30.2416 28.185C32.0031 28.4091 33.8097 28.4988 35.6164 28.3643ZM25.0927 30.4267C25.3186 29.6196 25.5896 28.3195 25.725 27.2435C26.3122 27.4228 26.8994 27.5573 27.4414 27.6918C27.0349 30.1577 26.267 30.875 25.8605 31.0095C25.5444 31.144 24.8217 31.2337 25.0927 30.4267ZM19.8083 31.7268C19.3115 31.0543 18.634 29.4851 18.092 29.0368C17.008 28.185 16.0596 28.8575 15.6079 28.3643C15.1562 27.8263 14.9756 27.7815 15.3821 27.2883C15.3821 27.2883 15.8789 26.6606 16.0596 26.3916C16.2402 26.1226 16.2402 25.6294 16.2854 25.4053C16.3757 25.1811 16.8725 24.5534 17.3694 24.1051C17.9114 23.6568 18.363 23.8361 20.0342 24.8673C22.1118 26.0778 22.7441 25.8536 22.0214 26.9296C21.615 27.6021 20.1245 29.4403 19.8083 31.7268ZM42.5267 30.9647C42.3912 32.8028 41.9848 35.448 41.3524 35.717C40.7201 35.986 39.7265 34.2824 34.4872 34.1927C30.7836 34.1479 27.893 34.5962 27.3962 37.9587C27.351 38.1829 27.2155 38.1381 27.1252 38.0484C26.0864 36.9724 25.1831 36.4792 23.6474 35.5825C22.1569 34.7307 21.1181 33.5202 20.9375 32.3545C20.7568 31.1888 21.1633 29.6196 23.2861 26.7951C23.6023 26.3916 23.6474 26.4365 24.8217 26.8848C24.7314 28.7678 24.2797 29.8438 24.0539 30.8302C23.8732 31.8165 24.9572 32.0407 25.9509 31.8165C26.9445 31.5923 27.893 30.5612 28.2995 27.8263C28.706 27.916 28.977 27.9608 29.3835 28.0056C29.4286 30.8302 29.6093 31.5027 29.7448 31.7717C29.9706 32.3097 30.5126 32.489 30.9643 32.489C33.2226 32.6683 35.4357 32.5787 36.2035 31.8165C36.9713 31.0543 36.7003 29.2161 36.5197 28.2298C36.881 28.185 37.1972 28.185 37.5133 28.1401C38.236 28.992 38.3715 29.9335 38.3715 30.5163C38.3715 31.1888 39.0941 31.5027 40.133 30.8302C41.1718 30.1128 41.0363 28.9023 40.4943 27.7815C42.7526 27.6021 42.6171 29.1265 42.5267 30.9647ZM44.243 40.0659C44.1979 40.3349 43.9269 40.5591 43.8817 39.9762C43.7914 39.2589 43.4301 37.6001 43.2946 36.9275C43.1591 36.2999 43.5204 34.3272 43.6559 32.6683C43.6559 32.5338 43.8366 32.5338 43.9269 32.6235C44.6495 33.3857 44.3785 38.9451 44.243 40.0659Z" fill="white"/>
</g>
</g>
<defs>
<clipPath id="clip0_150_729">
<rect width="60" height="60" fill="white"/>
</clipPath>
<clipPath id="clip1_150_729">
<rect width="32" height="36" fill="white" transform="translate(14 12)"/>
</clipPath>
</defs>
</svg>
