<svg width="60" height="60" viewBox="0 0 60 60" fill="none" xmlns="http://www.w3.org/2000/svg">
<rect width="60" height="60" fill="#102D69"/>
<g clip-path="url(#clip0_402_253)">
<path d="M10.1642 39.5764H50V42.9851H10.1642V39.5764Z" fill="#00B9F2"/>
<path fill-rule="evenodd" clip-rule="evenodd" d="M20.8225 18.0198H17.6841L10.0051 36.1107H14.3462L15.8471 32.5903H22.657L24.1579 36.1107H28.4991L20.8225 18.0198ZM17.0499 29.1544L19.2508 23.5089V23.5114L19.2533 23.5089L21.4542 29.1544H17.0499ZM32.8478 22.8659H29.0625V36.1082H33.1813V26.9449C33.5047 26.6494 33.8762 26.3912 34.2729 26.2026C34.7328 25.9841 35.8724 25.5893 36.6961 26.2671C37.3354 26.7934 37.3607 28.0347 37.3607 28.3873V36.1082H41.4517V28.1762C41.4517 27.6921 41.3961 27.2155 41.3178 26.7388C41.6917 26.4881 42.1137 26.3093 42.5256 26.1306C43.463 25.7209 44.5344 25.9245 44.8831 26.1628C45.6387 26.6792 45.7119 27.8535 45.7119 28.3873V36.1082H49.8029V28.2309C49.8029 26.7835 49.5957 24.9612 48.2742 23.7845C46.94 22.5978 44.8857 22.568 44.4561 22.5556C41.9242 22.5928 40.0088 23.926 40.0088 23.926C39.0967 23.0099 36.8553 22.1559 35.0158 22.7939C34.8136 22.8634 33.8231 23.1713 33.0145 23.9483L32.8478 22.8659Z" fill="white"/>
</g>
<defs>
<clipPath id="clip0_402_253">
<rect width="40" height="25" fill="white" transform="translate(10 18)"/>
</clipPath>
</defs>
</svg>
