<svg width="60" height="60" viewBox="0 0 60 60" fill="none" xmlns="http://www.w3.org/2000/svg">
<rect width="60" height="60" fill="#00A9E0"/>
<g clip-path="url(#clip0_158_2037)">
<path fill-rule="evenodd" clip-rule="evenodd" d="M7.13199 26.8587V25.163H9.29992V26.8587H7.13199ZM7.13199 34.5545V27.6048H9.29992V34.5518L7.13199 34.5545ZM45.701 31.6314H40.8337C40.9231 32.3696 41.4769 32.9357 42.5438 32.9357C43.1963 32.9529 43.8259 32.6973 44.2789 32.2314L45.576 33.5462C44.9104 34.2897 43.8554 34.7423 42.5504 34.7423C40.0654 34.7423 38.6039 33.3218 38.6039 31.0327C38.6039 28.9183 40.0141 27.3805 42.2478 27.3805C44.4815 27.3805 45.7799 28.7305 45.7799 30.7431C45.7868 31.0412 45.7604 31.3391 45.701 31.6314ZM43.6212 30.3009C43.5725 29.5796 43.0884 29.0657 42.2557 29.0657C41.423 29.0657 40.9402 29.5744 40.8376 30.3009H43.6212ZM49.391 34.7358C48.3201 34.7358 47.0112 34.4579 46.0443 33.5449L47.2809 32.2275C47.8514 32.7586 48.6031 33.0567 49.3857 33.0623C50.1408 33.0623 50.4697 32.8679 50.4697 32.5705C50.4697 32.3449 50.3052 32.217 49.8922 32.0944C49.5317 31.9875 48.9634 31.8936 48.4846 31.754C47.444 31.4527 46.41 31.0235 46.41 29.5666C46.4073 28.2179 47.5177 27.3909 49.3712 27.3909C50.3973 27.3909 51.5549 27.5983 52.5284 28.454L51.2787 29.7387C50.7328 29.217 49.9711 29.0292 49.3541 29.0292C48.7964 29.0292 48.4872 29.2235 48.4872 29.4935C48.4872 29.7179 48.6517 29.8496 49.0726 29.9853C49.4383 30.1014 50.0434 30.2148 50.5197 30.3492C51.5181 30.6283 52.5521 31.0496 52.5521 32.4362C52.5574 33.9871 51.2353 34.7371 49.391 34.7371V34.7358ZM16.009 27.8774C15.4595 27.2432 14.6496 26.8902 13.8068 26.9174C12.8925 26.9174 12.415 27.2435 12.415 27.7079C12.415 28.3366 13.1372 28.5544 14.5198 28.9392C16.0379 29.3631 17.7625 29.8418 17.7625 31.8257C17.7625 33.8097 16.0997 34.7266 13.9962 34.7266C12.2216 34.7266 10.7733 34.2244 9.84191 32.9775L11.46 31.647C12.0769 32.4701 13.0149 32.8053 13.9699 32.8053C15.1052 32.8053 15.5196 32.414 15.5196 31.9901C15.5196 31.3744 14.8618 31.2244 13.2688 30.7848C11.6297 30.3322 10.2063 29.7061 10.2063 27.7848C10.2063 26.0983 11.5994 25 13.8778 25C15.3249 25 16.6522 25.3809 17.6099 26.5652L16.009 27.8774ZM37.783 27.4718C38.1971 27.4556 38.5973 27.6218 38.8762 27.9257L38.0067 29.7387C37.7907 29.5781 37.5268 29.4937 37.2568 29.4987C36.7043 29.4987 36.2307 29.9709 36.2307 30.8292V34.5518H34.0444V27.6048H36.1939V28.5792C36.578 27.9126 37.0687 27.4718 37.783 27.4718ZM25.1543 29.8692V34.5518H22.9955V30.6257C22.9955 29.8718 22.5877 29.41 21.8669 29.41C21.146 29.41 20.6553 29.8548 20.6553 30.6518V34.5518H18.4926V25.1604H20.6553V28.5387C21.1613 27.8564 21.9677 27.4573 22.8219 27.4665C24.1413 27.4665 25.1543 28.3222 25.1543 29.8692ZM33.338 32.941V34.4136C32.9332 34.5672 32.5032 34.6451 32.0698 34.6431C31.4739 34.6431 30.8754 34.4579 30.5952 33.7731C30.1268 34.2949 29.252 34.6953 28.2602 34.6953C26.8131 34.6953 25.8831 33.9623 25.8831 32.5666C25.8831 31.2009 26.9986 30.3844 28.7219 30.3844C29.294 30.3853 29.8639 30.4554 30.4189 30.5931V30.3661C30.4189 29.5835 29.9637 29.1218 29.0205 29.1218C28.3846 29.1408 27.7758 29.3814 27.3012 29.8014L26.1172 28.4709C26.8236 27.837 27.9707 27.3648 29.2941 27.3648C31.3332 27.3648 32.5645 28.3379 32.5645 30.1601V32.594C32.5645 32.8549 32.696 32.9853 32.9815 32.9853C33.103 32.9848 33.224 32.9699 33.3419 32.941H33.338ZM30.4202 31.7501C30.0241 31.6527 29.618 31.6006 29.2099 31.5949C28.4654 31.5949 28.097 31.9575 28.097 32.4544C28.097 32.9253 28.4233 33.2657 29.0916 33.2657C29.7993 33.2657 30.4202 32.8457 30.4202 32.2092V31.7501Z" fill="black"/>
</g>
<defs>
<clipPath id="clip0_158_2037">
<rect width="46" height="10" fill="white" transform="translate(7 25)"/>
</clipPath>
</defs>
</svg>
