<svg width="60" height="60" viewBox="0 0 60 60" fill="none" xmlns="http://www.w3.org/2000/svg">
<rect width="60" height="60" fill="#0F238C"/>
<g clip-path="url(#clip0_1668_8739)">
<path d="M37.0987 35.7488L38.5519 29.2008L39.1052 35.7488H42.241L40.7877 25.3551H37.434L35.8689 31.5913L34.304 25.3551H30.9503L29.497 35.7488H32.6271L33.1861 29.2008L34.6394 35.7488H37.0987Z" fill="white"/>
<path d="M46.8242 25.3551H43.806V35.7488H50.9604V33.5661H46.8242V25.3551Z" fill="white"/>
<path d="M16.1941 25.3551H12.3932L9.03958 35.7488H12.3933L12.8404 33.878H15.7469L16.1941 35.7488H19.5478L16.1941 25.3551ZM14.2937 27.6417L15.2998 31.9031L13.2876 31.9031L14.2937 27.6417Z" fill="white"/>
<path d="M27.5965 28.2654C24.8189 26.0066 20.4845 26.925 20.442 28.993C19.8118 25.156 24.8022 24.355 27.5962 25.563C27.646 26.1791 27.6959 26.8424 27.5965 28.2654Z" fill="white"/>
<path d="M25.292 29.4893C24.5922 29.2353 23.574 29.0043 23.5726 28.2645C23.572 27.9623 23.7057 27.6342 24.3546 27.434C22.1188 27.6418 21.3732 30.1705 23.846 31.4273C24.277 31.6464 25.0253 31.8787 25.0253 32.6307C25.0253 33.5092 23.9874 33.8267 23.3046 33.8133C22.1703 33.7911 21.2584 33.4227 20.2184 32.7346V35.2291C21.4491 35.7217 23.4537 36.2898 25.4633 35.7152C27.0874 35.2508 28.4908 33.9832 28.4908 32.6307C28.4909 30.4299 26.4365 29.9047 25.292 29.4893Z" fill="white"/>
</g>
<defs>
<clipPath id="clip0_1668_8739">
<rect width="42" height="11" fill="white" transform="translate(9 25)"/>
</clipPath>
</defs>
</svg>
