<svg width="60" height="60" viewBox="0 0 60 60" fill="none" xmlns="http://www.w3.org/2000/svg">
<rect width="60" height="60" fill="black"/>
<path d="M45.1569 42.9087C28.1553 51 17.604 44.2302 10.8498 40.1184C10.4318 39.8593 9.72144 40.179 10.3378 40.887C12.588 43.6154 19.9623 50.1916 29.5879 50.1916C39.2201 50.1916 44.9504 44.9358 45.6672 44.0189C46.3792 43.1098 45.8763 42.6084 45.1567 42.9087H45.1569ZM49.9317 40.2718C49.4751 39.6772 47.1555 39.5664 45.6957 39.7457C44.2336 39.9199 42.039 40.8135 42.2298 41.35C42.3277 41.551 42.5275 41.4608 43.5319 41.3705C44.5391 41.27 47.3605 40.9139 47.9484 41.6825C48.5391 42.4563 47.0485 46.1428 46.7763 46.7373C46.5133 47.3318 46.8768 47.4851 47.3708 47.0892C47.8581 46.6933 48.7402 45.6683 49.3322 44.2176C49.9201 42.7591 50.2787 40.7244 49.9317 40.2718Z" fill="#FF9900"/>
<path fill-rule="evenodd" clip-rule="evenodd" d="M33.7252 26.3985C33.7252 28.5215 33.7788 30.292 32.7058 32.1774C31.8397 33.7104 30.4677 34.6531 28.9348 34.6531C26.8424 34.6531 25.6237 33.0589 25.6237 30.7059C25.6237 26.0611 29.7855 25.2181 33.7252 25.2181V26.3985ZM39.2206 39.6811C38.8603 40.0029 38.3391 40.026 37.933 39.8113C36.1242 38.3092 35.8022 37.6117 34.8059 36.1784C31.8167 39.2289 29.7013 40.1409 25.8231 40.1409C21.2397 40.1409 17.668 37.3127 17.668 31.6486C17.668 27.2263 20.0671 24.2141 23.4776 22.7426C26.4362 21.4395 30.5674 21.2096 33.7252 20.8495V20.1443C33.7252 18.8489 33.8247 17.316 33.066 16.1971C32.3991 15.193 31.1269 14.7791 30.0078 14.7791C27.9308 14.7791 26.0759 15.8444 25.6237 18.0518C25.5316 18.5424 25.1715 19.0253 24.681 19.0482L19.3924 18.4812C18.948 18.3813 18.4575 18.0212 18.5801 17.339C19.7988 10.9316 25.5853 9 30.7664 9C33.4184 9 36.8827 9.7052 38.9752 11.7134C41.6271 14.1889 41.3741 17.4923 41.3741 21.0869V29.5792C41.3741 32.1315 42.4319 33.2505 43.4282 34.6302C43.7807 35.1207 43.8574 35.711 43.4128 36.0787C42.3015 37.006 40.324 38.7307 39.2358 39.6965L39.2204 39.6811" fill="white"/>
<path d="M45.1569 42.9087C28.1553 51 17.604 44.2302 10.8498 40.1184C10.4318 39.8593 9.72144 40.179 10.3378 40.887C12.588 43.6154 19.9623 50.1916 29.5879 50.1916C39.2201 50.1916 44.9504 44.9358 45.6672 44.0189C46.3792 43.1098 45.8763 42.6084 45.1567 42.9087H45.1569ZM49.9317 40.2718C49.4751 39.6772 47.1555 39.5664 45.6957 39.7457C44.2336 39.9199 42.039 40.8135 42.2298 41.35C42.3277 41.551 42.5275 41.4608 43.5319 41.3705C44.5391 41.27 47.3605 40.9139 47.9484 41.6825C48.5391 42.4563 47.0485 46.1428 46.7763 46.7373C46.5133 47.3318 46.8768 47.4851 47.3708 47.0892C47.8581 46.6933 48.7402 45.6683 49.3322 44.2176C49.9201 42.7591 50.2787 40.7244 49.9317 40.2718Z" fill="#FF9900"/>
<path fill-rule="evenodd" clip-rule="evenodd" d="M33.7252 26.3985C33.7252 28.5215 33.7788 30.292 32.7058 32.1774C31.8397 33.7104 30.4677 34.6531 28.9348 34.6531C26.8424 34.6531 25.6237 33.0589 25.6237 30.7059C25.6237 26.0611 29.7855 25.2181 33.7252 25.2181V26.3985ZM39.2206 39.6811C38.8603 40.0029 38.3391 40.026 37.933 39.8113C36.1242 38.3092 35.8022 37.6117 34.8059 36.1784C31.8167 39.2289 29.7013 40.1409 25.8231 40.1409C21.2397 40.1409 17.668 37.3127 17.668 31.6486C17.668 27.2263 20.0671 24.2141 23.4776 22.7426C26.4362 21.4395 30.5674 21.2096 33.7252 20.8495V20.1443C33.7252 18.8489 33.8247 17.316 33.066 16.1971C32.3991 15.193 31.1269 14.7791 30.0078 14.7791C27.9308 14.7791 26.0759 15.8444 25.6237 18.0518C25.5316 18.5424 25.1715 19.0253 24.681 19.0482L19.3924 18.4812C18.948 18.3813 18.4575 18.0212 18.5801 17.339C19.7988 10.9316 25.5853 9 30.7664 9C33.4184 9 36.8827 9.7052 38.9752 11.7134C41.6271 14.1889 41.3741 17.4923 41.3741 21.0869V29.5792C41.3741 32.1315 42.4319 33.2505 43.4282 34.6302C43.7807 35.1207 43.8574 35.711 43.4128 36.0787C42.3015 37.006 40.324 38.7307 39.2358 39.6965L39.2204 39.6811" fill="white"/>
</svg>
