<svg width="60" height="60" viewBox="0 0 60 60" fill="none" xmlns="http://www.w3.org/2000/svg">
<g clip-path="url(#clip0_146_182)">
<rect width="60" height="60" fill="black"/>
<g clip-path="url(#clip1_146_182)">
<mask id="mask0_146_182" style="mask-type:luminance" maskUnits="userSpaceOnUse" x="0" y="0" width="60" height="60">
<path d="M60 0H0V60H60V0Z" fill="white"/>
</mask>
<g mask="url(#mask0_146_182)">
<path d="M42.3402 24.5058C41.256 25.1695 40.358 26.0976 39.7301 27.2029C39.1023 28.3083 38.7651 29.5548 38.7501 30.8259C38.7545 32.2566 39.1784 33.6546 39.9693 34.8468C40.7603 36.0388 41.8835 36.9729 43.2 37.5328C42.681 39.2076 41.9127 40.7946 40.9212 42.2406C39.5027 44.2828 38.0192 46.325 35.7621 46.325C33.5051 46.325 32.9246 45.0136 30.3234 45.0136C27.7868 45.0136 26.8839 46.368 24.8202 46.368C22.7565 46.368 21.3164 44.4762 19.661 42.1546C17.4744 38.9023 16.2726 35.0881 16.2 31.1698C16.2 24.7207 20.3919 21.303 24.5192 21.303C26.712 21.303 28.5392 22.743 29.915 22.743C31.2263 22.743 33.2685 21.2167 35.7621 21.2167C37.0442 21.1836 38.3147 21.4663 39.4619 22.0399C40.6089 22.6134 41.5974 23.4603 42.3402 24.5058ZM34.5798 18.4867C35.679 17.1937 36.3012 15.5626 36.3426 13.8661C36.3444 13.6424 36.3228 13.4191 36.2781 13.2C34.3899 13.3844 32.6439 14.2844 31.3983 15.7152C30.2885 16.9567 29.6427 18.5442 29.571 20.2078C29.5718 20.4102 29.5934 20.6119 29.6355 20.8098C29.7843 20.838 29.9355 20.8524 30.087 20.853C30.9572 20.7837 31.8042 20.5383 32.5766 20.1315C33.3489 19.7247 34.0305 19.1652 34.5798 18.4867Z" fill="white"/>
</g>
</g>
</g>
<defs>
<clipPath id="clip0_146_182">
<rect width="60" height="60" fill="white"/>
</clipPath>
<clipPath id="clip1_146_182">
<rect width="60" height="60" fill="white"/>
</clipPath>
</defs>
</svg>
