<svg width="60" height="60" viewBox="0 0 60 60" fill="none" xmlns="http://www.w3.org/2000/svg">
<rect width="60" height="60" fill="#231F80"/>
<g clip-path="url(#clip0_147_235)">
<path fill-rule="evenodd" clip-rule="evenodd" d="M25.7666 27.7626C26.595 27.1318 26.8027 26.0842 26.8027 25.2457C26.8027 24.1968 26.595 23.3595 25.9743 22.5197C25.5602 21.6824 24.733 21.0528 23.6969 20.6335C22.6609 20.2142 21.0065 20.0052 18.7291 20.0052H9V20.4245C9.82837 20.4245 10.4503 20.6335 10.8632 20.8438C11.2774 21.0528 11.4851 21.2631 11.4851 21.4733C11.6916 21.6836 11.8993 22.5209 11.8993 23.5698V36.9857C11.8993 38.2436 11.6916 38.8731 11.4851 39.2924C11.4851 39.5014 11.2774 39.7117 10.8632 39.9207C10.4503 40.131 9.82837 40.131 9 40.131V40.7605H19.3498C22.2479 40.7605 24.5253 40.131 25.9743 38.8743C27.2157 37.8255 27.8376 36.5676 27.8376 34.8905C27.8376 33.4236 27.2157 32.3748 26.1808 31.3284C25.3525 30.6976 23.9034 30.2783 22.0414 29.6513C23.9046 29.2295 25.146 28.6012 25.7666 27.7626ZM16.4529 21.0528C17.902 21.0528 19.1445 21.2631 19.7652 21.6836C20.3859 21.8926 21.0078 22.3119 21.2142 22.939C21.6284 23.5698 21.8361 24.1968 21.8361 25.2457C21.8361 26.0842 21.6284 26.9228 21.2142 27.3421C20.7988 27.9717 20.3847 28.3909 19.764 28.8102C18.9356 29.2295 17.902 29.2295 16.4529 29.2295V21.0528ZM19.9705 30.9079C20.7988 31.3272 21.4207 31.7465 21.8349 32.5838C22.2491 33.4212 22.4556 34.261 22.4556 35.0995C22.4556 35.9393 22.2491 36.7767 21.8349 37.4062C21.4207 38.0345 21.0065 38.6641 20.3847 39.0834C19.5575 39.2924 18.9356 39.5014 18.1072 39.5014C17.693 39.5014 17.2801 39.5014 16.8659 39.0834C16.6582 38.8731 16.4517 38.4526 16.4517 37.8255V37.1947V30.4874C18.1084 30.4874 19.1445 30.6964 19.9705 30.9079Z" fill="white"/>
<path fill-rule="evenodd" clip-rule="evenodd" d="M42.9837 30.6937V37.1944C42.9837 38.2445 42.9837 38.8716 42.776 39.0819C42.776 39.5011 42.363 39.7114 42.1553 39.9204C41.9489 40.1307 41.327 40.1307 40.7063 40.1307H40.0844V40.7602H50.852V40.1307H50.0224C49.6083 40.1307 48.9876 40.1307 48.7823 39.9204C48.3669 39.7114 48.1592 39.5011 47.9527 39.0819C47.9527 38.8716 47.9527 38.2433 47.9527 37.1944V23.5646C47.9527 22.5145 47.9527 21.8874 47.9527 21.6784C48.1592 21.2579 48.3669 21.0476 48.5746 20.8386C48.9888 20.6271 49.403 20.4181 50.0224 20.4181H50.852V20H40.0844V20.4193H40.7063C41.327 20.4193 41.7412 20.6283 42.1553 20.8398C42.5695 21.0488 42.776 21.2591 42.776 21.4681C42.9837 21.8886 42.9837 22.517 42.9837 23.5658V29.437H35.7373V23.5646C35.7373 22.5145 35.7373 21.8874 35.9438 21.6784C36.1515 21.2579 36.358 21.0476 36.5657 20.8386C36.9798 20.6271 37.394 20.4181 38.0147 20.4181H38.6354V20H27.869V20.4193H28.6961C29.1103 20.4193 29.7322 20.6283 29.9387 20.8398C30.3529 21.0488 30.5606 21.2591 30.7671 21.4681C30.7671 21.8886 30.7671 22.517 30.7671 23.5658V37.1957C30.7671 38.2457 30.7671 38.8728 30.7671 39.0831C30.5606 39.5024 30.3529 39.7126 30.1464 39.9217C29.7322 40.1319 29.318 40.1319 28.6961 40.1319H27.869V40.7615H38.6354V40.1319H38.0147C37.394 40.1319 36.9798 40.1319 36.5657 39.9217C36.358 39.7126 35.9438 39.5024 35.9438 39.0831C35.7373 38.8728 35.7373 38.2445 35.7373 37.1957V30.6937H42.9837Z" fill="white"/>
</g>
<defs>
<clipPath id="clip0_147_235">
<rect width="42" height="21" fill="white" transform="translate(9 20)"/>
</clipPath>
</defs>
</svg>
