<svg width="60" height="60" viewBox="0 0 60 60" fill="none" xmlns="http://www.w3.org/2000/svg">
<rect width="60" height="60" fill="#E61D2B"/>
<g clip-path="url(#clip0_1602_8638)">
<path d="M38.4223 24.9979C38.4223 24.9979 37.6349 25.3072 36.7193 26.303C35.8036 27.2989 35.2703 28.4187 35.665 28.7165C35.8165 28.8297 36.1662 28.8513 36.8005 28.2853C37.3859 27.7838 37.8455 27.155 38.143 26.4486C38.5527 25.4628 38.4223 25.01 38.4223 24.9993M43.4336 26.7895C42.4162 26.2747 41.6726 25.6441 40.8989 25.254C40.1608 24.88 39.6835 24.7237 39.0867 24.8025C39.0034 24.8172 38.9213 24.8374 38.8408 24.8632C38.8408 24.8632 39.1481 25.8988 37.9251 27.6385C36.6865 29.4024 35.5625 29.3903 35.243 28.9059C34.9084 28.3945 35.3406 27.3521 36.0624 26.4243C36.8183 25.4541 38.1457 24.6496 38.1457 24.6496C38.1457 24.6496 37.7223 24.3942 36.6831 24.9757C35.6691 25.5403 33.9237 26.8879 32.304 29.1606C30.6843 31.4332 30.3634 32.6838 30.1312 33.6682C29.8991 34.6526 30.1101 35.7071 31.2163 35.7071C32.3225 35.7071 33.6103 34.0421 33.9736 33.4633C34.6489 32.3853 35.0893 30.7318 34.1702 30.9589C33.7175 31.0707 33.3508 31.5653 33.1193 32.0417C32.9732 32.3476 32.8615 32.6685 32.7861 32.9984C32.4649 33.129 32.1633 33.3022 31.8895 33.5132C31.585 33.7358 31.3003 33.9838 31.0387 34.2544C31.0387 34.2544 31.0428 33.4674 31.6785 32.1939C32.3143 30.9205 33.4812 30.339 34.1422 30.2844C34.7377 30.2373 35.5127 30.7359 34.8558 32.5753C34.1989 34.4147 32.261 36.651 30.2255 36.6786C28.347 36.7043 27.1179 34.3386 29.7325 30.2103C32.6263 25.6495 36.0207 24.25 37.1228 24.0944C38.2249 23.9387 38.5834 24.4185 38.5834 24.4185C39.2468 24.1499 39.9633 24.0333 40.679 24.0775C42.0249 24.1671 43.0656 25.1071 44.4394 25.7674C44.0823 26.1043 43.7416 26.458 43.4343 26.7895M49.4801 25.254C48.5474 25.8442 47.2568 26.3792 46.0168 26.2646C45.7027 26.5847 45.3667 26.9553 45.0301 27.3595C47.1803 27.7793 49.0643 26.4647 50.066 25.3456C50.4312 24.9432 50.7449 24.4981 51.0001 24.0203C50.5441 24.489 50.0337 24.9031 49.4795 25.254M46.6163 31.2318C46.6326 31.2038 46.6459 31.1742 46.6559 31.1435C46.6495 31.0949 46.6265 31.05 46.5905 31.0161C46.5546 30.9823 46.5081 30.9616 46.4586 30.9575C46.2537 30.9481 45.9744 30.9865 45.2418 31.787C44.6339 32.448 44.1108 33.1803 43.6842 33.9673C43.2649 34.7233 43.0949 35.2866 43.336 35.4321C43.4143 35.4722 43.5051 35.4813 43.59 35.4578C43.7532 35.4193 43.9382 35.2684 44.2196 34.947C44.3513 34.7961 44.4975 34.5825 44.6723 34.346C45.1571 33.6951 46.3753 31.6462 46.6163 31.2318ZM39.0054 32.1023C39.1276 31.787 39.2833 31.1678 38.9596 30.9245C38.6121 30.6665 37.7258 31.2722 37.721 31.8934C37.7148 32.5295 38.3451 32.8172 38.496 32.8576C38.582 32.8805 38.6121 32.8772 38.6537 32.8091C38.7874 32.5818 38.9049 32.3457 39.0054 32.1023ZM38.3349 33.2592C38.1152 33.1591 37.9103 33.0301 37.7258 32.8758C37.5407 32.7226 37.386 32.5369 37.2696 32.328C37.2573 32.3078 37.245 32.3233 37.2314 32.3415C37.2177 32.3597 37.1631 32.4089 36.6906 33.0921C36.2181 33.7753 35.4922 35.1909 36.1491 35.4321C36.5697 35.5864 37.2696 34.8594 37.6513 34.3777C37.9114 34.0414 38.1471 33.6875 38.3567 33.3185C38.3765 33.2774 38.3567 33.268 38.3355 33.2592M45.7867 34.8945C45.6084 35.1761 45.405 35.7165 45.9915 35.3803C46.7092 34.9713 47.7314 33.4411 47.7314 33.4411H48.195C47.7732 34.0812 47.3034 34.6893 46.7898 35.2603C46.0625 36.0554 45.1755 36.7777 44.5507 36.7063C43.8208 36.6221 44.0495 35.6767 44.0495 35.6767C44.0495 35.6767 43.0055 36.7737 42.283 36.6948C41.3072 36.5884 41.605 35.3985 41.605 35.3985C41.605 35.3985 40.5015 36.7346 39.7497 36.6935C38.5711 36.6261 38.8675 35.2111 39.1952 34.2146C39.3707 33.6817 39.5332 33.2632 39.5332 33.2632C39.5332 33.2632 39.4165 33.2936 39.1652 33.3306C39.0341 33.3488 38.7951 33.3623 38.7951 33.3623C38.7951 33.3623 38.3041 34.2166 37.9115 34.7301C37.5189 35.2435 35.85 37.0135 34.8681 36.6591C33.9599 36.3316 34.2604 34.9598 34.7889 33.8696C35.5605 32.2802 37.7305 29.9967 38.9822 30.2986C40.2796 30.6092 39.0115 32.9452 39.0115 32.9452C39.0115 32.9452 39.0115 32.954 39.0252 32.96C39.0511 32.9695 39.1187 32.9769 39.2751 32.9466C39.4372 32.9139 39.596 32.8673 39.7497 32.8071C39.7497 32.8071 41.0539 30.1119 42.4947 28.3486C43.9355 26.5854 46.8096 23.5486 47.9376 24.283C48.2107 24.4636 48.0878 25.0855 47.7164 25.8401C47.5491 25.8938 47.379 25.9388 47.207 25.9749C47.4555 25.5295 47.6201 25.1542 47.6692 24.8921C47.8393 23.9812 45.6836 25.9028 44.1431 27.9673C43.2152 29.2119 42.3908 30.5285 41.678 31.9042C41.9563 31.7367 42.2219 31.5496 42.4729 31.3443C43.16 30.7821 43.813 30.1805 44.4285 29.5426C45.0212 28.9439 45.5771 28.3107 46.0933 27.6466C46.2573 27.6387 46.4207 27.6221 46.5829 27.5967C46.0201 28.3504 45.4064 29.0658 44.746 29.738C44.1315 30.3511 43.4664 31.0108 42.8887 31.4898C42.3727 31.9228 41.8284 32.3219 41.2594 32.6845C41.2594 32.6845 39.9122 35.3654 40.6449 35.5373C41.0758 35.6397 41.9266 34.3467 41.9266 34.3467C41.9266 34.3467 43.0369 32.675 43.7061 31.9211C44.619 30.8969 45.405 30.304 46.1902 30.2932C46.6477 30.2851 46.9174 30.7648 46.9174 30.7648L47.1325 30.436H48.4572C48.4572 30.436 45.9833 34.5785 45.7853 34.8904M49.4795 25.254C48.5467 25.8442 47.2561 26.3792 46.0161 26.2646C45.702 26.5847 45.366 26.9553 45.0294 27.3595C47.1797 27.7793 49.0636 26.4647 50.0653 25.3456C50.4308 24.9433 50.7447 24.4981 51.0001 24.0203C50.5441 24.489 50.0337 24.9031 49.4795 25.254ZM30.8755 27.2861H29.6157L28.9035 28.4214H30.1633L30.8755 27.2861ZM24.9103 31.2176C25.4463 30.4926 26.9253 27.9518 26.9253 27.9518C26.9191 27.9033 26.8961 27.8583 26.8603 27.8245C26.8245 27.7906 26.7781 27.7699 26.7287 27.7658C26.5238 27.7564 26.1824 27.8244 25.5043 28.662C24.8263 29.4995 24.2998 30.1658 23.916 30.8592C23.4954 31.6158 23.3117 32.1495 23.5535 32.2943C23.6319 32.3331 23.722 32.3422 23.8068 32.3199C23.9638 32.2809 24.1694 32.1252 24.4514 31.8052C24.5839 31.6556 24.7341 31.4541 24.9103 31.2176ZM18.1502 27.7813C17.8019 27.5219 16.9163 28.129 16.9115 28.7489C16.906 29.3856 17.7084 29.5803 17.8122 29.585C17.8427 29.5875 17.8733 29.5812 17.9002 29.5669C17.9188 29.5562 17.9335 29.5402 17.9426 29.521C18.0369 29.3381 18.1217 29.1506 18.1966 28.9591C18.3188 28.6438 18.4738 28.0246 18.1502 27.7813ZM17.6251 29.9731C17.3849 29.8991 17.1554 29.795 16.9422 29.6632C16.7356 29.5303 16.5676 29.3466 16.4547 29.1302C16.4424 29.11 16.4287 29.1255 16.4164 29.1437C16.4041 29.1619 16.3331 29.2495 15.8592 29.9354C15.3853 30.6213 14.6834 32.0241 15.341 32.2654C15.7602 32.4224 16.4683 31.6893 16.8528 31.2095C17.1405 30.8325 17.4063 30.4398 17.649 30.0331C17.6647 29.992 17.649 29.9826 17.6257 29.9752M27.9147 30.3956H28.3763C28.3763 30.3956 26.0636 33.6972 24.7573 33.5435C24.028 33.4593 24.2445 32.5713 24.2445 32.5713C24.2445 32.5713 23.2202 33.7544 22.2793 33.5146C21.4257 33.2983 21.9768 31.8975 21.9768 31.8975C21.8798 31.9359 20.0327 33.9902 18.7347 33.4977C17.3765 32.9802 18.0819 31.2601 18.34 30.7426C18.5592 30.3067 18.8016 29.8822 18.8016 29.8822C18.8016 29.8822 18.5933 29.9401 18.4602 29.9698C18.327 29.9994 18.1345 30.0372 18.1345 30.0372C18.1345 30.0372 17.4919 31.0674 17.0993 31.5815C16.7066 32.0956 15.0378 33.8622 14.0545 33.5105C13.0712 33.1588 13.315 31.8011 13.8674 30.7231C14.7633 28.9746 16.889 26.8259 18.1693 27.152C19.4626 27.4774 18.3919 29.5473 18.3919 29.5473C18.3919 29.5473 18.6493 29.5803 19.2659 29.1653C20.1536 28.5676 21.3254 26.96 22.5941 27.1486C23.1922 27.2376 23.7494 27.8406 22.9874 28.986C22.7443 29.3539 22.3366 29.6827 22.0246 29.3573C21.83 29.1552 22 28.7866 22.2042 28.5346C22.2836 28.4319 22.3875 28.35 22.5065 28.2962C22.6256 28.2424 22.7563 28.2183 22.887 28.226C22.887 28.226 23.0966 27.7544 22.5633 27.7611C22.1318 27.7692 21.0392 28.7617 20.4226 29.7643C19.8573 30.6847 19.0003 32.2526 19.8607 32.5942C20.6493 32.9081 22.1502 31.1502 22.8454 30.2292C23.5405 29.3081 25.1247 27.2207 26.4535 27.1372C26.911 27.1075 27.1834 27.5192 27.1834 27.5192L27.3371 27.2794H28.6659C28.6659 27.2794 26.1633 31.4002 25.968 31.7122C25.8143 31.9561 25.6102 32.5046 26.1728 32.1973C26.7355 31.8901 27.9147 30.3956 27.9147 30.3956ZM27.1916 36.9987C26.2132 36.3304 25.0416 35.993 23.8525 36.0372C23.5307 36.0459 23.2154 36.1293 22.9324 36.2806C22.6493 36.432 22.4064 36.6471 22.2233 36.9084C21.7166 36.0359 20.7149 35.5002 19.1662 35.5123C16.6636 35.5406 14.1815 36.6793 12.2149 36.678C10.3303 36.678 8.95574 35.509 9.00013 33.433C9.08275 29.7899 12.2026 26.5092 14.5311 25.033C15.8736 24.1847 16.9962 23.9327 17.7302 24.0142C18.2656 24.0728 18.9095 24.6833 18.5032 25.5828C17.9064 26.8973 17.0822 26.7895 17.1129 26.1609C17.13 25.7519 17.4059 25.4945 17.6134 25.3523C17.7452 25.2627 17.9781 25.2371 18.0996 25.2344C18.2178 25.136 18.3045 24.4164 17.3485 24.6529C16.3925 24.8894 15.2317 25.8193 14.1296 27.0206C13.0275 28.222 11.3115 30.4926 10.8875 32.8772C10.6895 33.9828 10.8192 35.9995 13.4761 35.9766C15.7295 35.9584 19.0508 34.4942 22.1031 34.5246C23.2878 34.536 24.3189 34.8513 25.1226 35.3405C25.912 35.8202 26.8584 36.521 27.1943 36.9994" fill="white"/>
</g>
<defs>
<clipPath id="clip0_1602_8638">
<rect width="42" height="13" fill="white" transform="translate(9 24)"/>
</clipPath>
</defs>
</svg>
