<svg width="60" height="60" viewBox="0 0 60 60" fill="none" xmlns="http://www.w3.org/2000/svg">
<rect width="60" height="60" fill="#003E69"/>
<g clip-path="url(#clip0_168_504)">
<path fill-rule="evenodd" clip-rule="evenodd" d="M40.2066 13.0078C40.0957 13.5682 39.9118 14.1125 39.763 14.6622C38.7029 18.4135 37.6671 22.1701 36.661 25.9348C41.4344 25.9428 46.2104 25.9214 50.9865 25.9455C45.4505 28.5304 39.9388 31.1715 34.4921 33.9334C33.4157 37.9528 32.269 41.9534 31.1305 45.9567C31.8255 42.117 32.599 38.2933 33.3292 34.4616C29.6268 36.3171 25.9542 38.2209 22.2761 40.1166C17.8516 42.4066 13.4164 44.6804 9.0027 46.9917L9 46.8791V46.6834C17.2053 42.0741 25.4268 37.4916 33.6348 32.8849C33.9674 31.1367 34.3136 29.3911 34.6381 27.6401C32.3988 27.608 30.1623 27.5222 27.9203 27.4846C25.2889 29.8335 22.6953 32.2334 20.0368 34.5554C22.2058 32.161 24.391 29.7799 26.6303 27.4498C21.7812 27.3211 16.9294 27.2138 12.0804 27.0824C11.0554 27.0771 10.0223 26.9913 9 27.0449V25.967C15.35 25.967 21.6974 25.9401 28.0447 25.9375C32.0905 21.6178 36.1499 17.3141 40.2066 13.0078ZM29.9243 25.6747C29.835 25.7525 29.7593 25.8463 29.6836 25.9375C31.4496 25.9321 33.2129 25.9375 34.9789 25.9348C35.3467 23.9988 35.7253 22.0655 36.0931 20.1296C34.0242 21.9663 31.9851 23.8326 29.9243 25.6747ZM36.1499 27.6911C35.7551 29.1819 35.344 30.6701 34.9356 32.1583C37.5129 30.7291 40.0713 29.2651 42.6595 27.8547C40.4905 27.7849 38.3189 27.7394 36.1499 27.6911Z" fill="white"/>
</g>
<defs>
<clipPath id="clip0_168_504">
<rect width="42" height="34" fill="white" transform="translate(9 13)"/>
</clipPath>
</defs>
</svg>
