<svg width="60" height="60" viewBox="0 0 60 60" fill="none" xmlns="http://www.w3.org/2000/svg">
<rect width="60" height="60" fill="#FA660F"/>
<path d="M5.69018 28.3428C5.13576 28.1351 4.43822 28.0368 4.03685 27.5971C3.761 27.288 3.85491 26.7367 4.19668 26.4946C4.62965 26.1555 5.3159 26.1957 5.85271 26.4179C6.13669 26.5321 6.42293 26.7094 6.70691 26.9493L7.74713 24.8374C7.24824 24.5622 6.72813 24.3528 6.18681 24.2103C4.7678 23.8253 3.12396 23.8994 2.08284 24.9424C1.15324 25.8314 0.890025 27.5548 1.37672 28.6974C1.67696 29.3562 2.19526 29.7879 2.85623 30.0631C3.38536 30.2867 4.07703 30.4939 4.57637 30.7043C5.05404 30.897 5.42606 31.1757 5.41161 31.6974C5.39039 32.3311 4.859 32.7099 4.14476 32.6905C3.77003 32.6905 3.39304 32.6041 3.01154 32.4294C2.62958 32.2548 2.24312 31.9889 1.85213 31.6299L0.730652 33.8093C1.81647 34.5903 2.99483 34.9819 4.26666 34.9819C5.36285 34.9823 6.38636 34.6988 7.14169 34.0077C8.32232 32.9674 8.51555 30.7074 7.56879 29.5207C7.17284 29.029 6.54754 28.6352 5.69334 28.3415L5.69018 28.3428ZM48.9141 31.4359C48.2771 30.161 47.64 28.8861 47.0008 27.6108C45.426 27.613 43.8512 27.6156 42.2792 27.6178V28.5501C41.7279 27.9256 41.048 27.6108 40.2389 27.6108C39.74 27.6108 39.28 27.7087 38.8574 27.9067C38.4352 28.1047 38.07 28.375 37.7621 28.7203C37.4542 29.0652 37.2131 29.4709 37.0343 29.9348C36.9914 30.0468 36.953 30.161 36.9219 30.2774C36.8907 30.1491 36.8551 30.0256 36.8144 29.907C36.6451 29.4153 36.4018 28.9981 36.0799 28.6577C35.3828 27.919 34.4098 27.6108 33.3457 27.6112C32.2779 27.609 31.2851 27.9226 30.5709 28.6462C30.4061 28.8116 30.2585 28.9959 30.1316 29.1988V27.6108H28.7573V25.4852H26.3428V27.6108C25.145 27.6108 23.9472 27.6108 22.7499 27.6108V28.536C22.1891 27.9208 21.483 27.6108 20.6288 27.6108C20.1231 27.6108 19.6599 27.7087 19.2423 27.9067C18.8247 28.1047 18.4644 28.3728 18.1615 28.7132C17.9732 28.9254 17.8107 29.1608 17.6725 29.4171V27.4825C17.5745 27.4639 17.4887 27.4547 17.4124 27.4547H17.2048C16.7059 27.4547 16.272 27.5667 15.8973 27.7925C15.5225 28.0187 15.2079 28.3424 14.9501 28.7644V27.6064H11.3689V25.4808H8.95439V27.6064H8.15527V29.69H8.95439V33.2307V34.9065H11.3689C11.3689 33.1677 11.3689 31.4288 11.3689 29.69H12.5355V34.9065H14.9501C14.9501 34.0942 14.9501 32.4603 14.9501 31.6502C14.9501 30.9883 15.0909 30.4847 15.3699 30.1398C15.649 29.795 16.0688 29.6226 16.6296 29.6226C16.9375 29.6226 17.226 29.6786 17.4978 29.7928C17.4811 29.8303 17.4666 29.8695 17.4526 29.9092C17.2833 30.3639 17.1998 30.8463 17.1998 31.3521C17.1998 31.8954 17.2856 32.3964 17.4599 32.8554C17.7912 33.7374 18.4174 34.4633 19.2802 34.8482C19.6978 35.037 20.1561 35.13 20.6545 35.13C21.5349 35.13 22.2338 34.7944 22.7494 34.1233V34.9087H25.1784V29.6922H26.345V34.9087H28.7595V29.6922H29.876C29.8544 29.746 29.8309 29.7972 29.8115 29.8532C29.6322 30.3264 29.5442 30.8578 29.5442 31.4474C29.5442 32.037 29.6372 32.5335 29.8232 32.9926C30.0092 33.4516 30.2743 33.8481 30.6178 34.1788C30.9614 34.51 31.3718 34.7662 31.8513 34.9457C32.3308 35.1252 32.8603 35.2138 33.4378 35.2138C35.3227 35.2138 36.5015 34.4051 36.9738 32.7849C36.9882 32.8246 37 32.8643 37.0144 32.9013C37.1792 33.337 37.4104 33.7123 37.7088 34.0249C38.3296 34.6745 39.1833 35.0238 40.1188 35.018C40.7351 35.0246 41.2728 34.8804 41.7676 34.5285C41.9324 34.4143 42.104 34.2697 42.2805 34.095V34.7711C42.2805 35.2954 42.1446 35.7055 41.8751 35.9992C41.6028 36.2929 41.2141 36.4398 40.7085 36.4398C40.112 36.4398 39.7301 36.2043 39.5608 35.736H36.8383C36.9097 36.1227 37.0505 36.4795 37.2654 36.8058C38.9558 39.4301 44.3546 38.8546 44.6309 35.4634C44.6765 35.1512 44.6977 34.7967 44.6977 34.4007V28.5593L47.5967 33.9178L45.263 38.4163H47.971C49.8343 34.8152 51.698 31.2114 53.5612 27.6103H50.7742C50.1562 28.8852 49.5358 30.1601 48.9182 31.4355H48.9141V31.4359ZM22.7047 31.9999C22.4695 32.5692 21.9101 32.989 21.2708 32.9789C20.3778 33.001 19.6866 32.2032 19.7105 31.3521C19.6974 30.512 20.3958 29.7478 21.2708 29.7672C22.3968 29.7385 23.1472 31.0337 22.7047 31.9999ZM32.5014 29.5313C32.7375 29.3284 33.0405 29.2283 33.4152 29.2283C33.7899 29.2283 34.0739 29.3333 34.3222 29.5454C34.5701 29.7575 34.7349 30.0371 34.8162 30.3868H32.0554C32.1172 30.0186 32.2675 29.7341 32.5014 29.5313ZM34.6414 32.7875C34.3742 33.2281 33.9782 33.4494 33.4531 33.4494C32.4748 33.4494 31.9858 32.911 31.9858 31.8341H36.7837C36.8099 32.1719 36.8745 32.489 36.9747 32.7853H34.641V32.7875H34.6414ZM42.2742 31.9532C42.0426 32.5295 41.4823 32.948 40.8403 32.9392C39.9468 32.9613 39.256 32.1635 39.28 31.3124C39.2682 30.4785 39.9838 29.716 40.8425 29.7134C41.7139 29.7081 42.42 30.4873 42.4051 31.3265C42.4051 31.555 42.3622 31.7578 42.2787 31.9536H42.2742V31.9532ZM59.0671 28.0491C58.7813 27.6946 58.3722 27.5124 57.8837 27.4176C58.1627 27.2496 58.3682 27.0446 58.5018 26.8047C58.8761 26.1546 58.746 24.9375 58.1749 24.4833C57.9794 24.306 57.7311 24.1781 57.4354 24.0988V23.0056H56.3424V23.996H55.648V23.0056H54.5554V23.996H53.6989V31.3217H54.5554V32.3611H55.648V31.3217H56.3424V32.3611H57.4354V31.282C57.6002 31.2586 57.7573 31.2282 57.9054 31.1841C59.2874 30.8679 59.8486 29.1617 59.0671 28.0491ZM57.0941 26.0933C57.0941 26.6318 56.7478 26.8999 56.0539 26.8999H55.6457V25.2846H56.0539C56.7482 25.2846 57.0941 25.5527 57.0941 26.0911V26.0933ZM57.1275 29.6596C56.8868 29.8378 56.104 29.8576 55.6457 29.8439V28.2895C56.1049 28.2758 56.8859 28.2952 57.1275 28.4738C57.5519 28.6903 57.5546 29.4431 57.1275 29.6596Z" fill="black"/>
</svg>
