<svg width="60" height="60" viewBox="0 0 60 60" fill="none" xmlns="http://www.w3.org/2000/svg">
<g clip-path="url(#clip0_150_893)">
<rect width="60" height="60" fill="white"/>
<rect width="60" height="60" fill="#F30B1B"/>
<path d="M51.546 25.809C47.4468 25.809 44.3142 27.9408 44.3142 31.6536C44.3142 34.7862 47.1654 36.9966 50.9922 36.9966C53.8974 36.9966 56.3094 34.8924 57 33.5646C57 33.1506 56.5854 32.9796 56.1984 32.9796C55.5336 34.0044 53.6496 34.7862 52.878 34.7556C48.2502 34.5864 47.5032 32.7336 47.4468 30.7974C47.3598 28.6878 49.635 26.8614 51.5748 26.9988C52.7064 27.0846 53.0976 28.9392 54.0888 29.601C54.399 29.7708 55.1172 29.7426 55.5876 29.6598C55.95 29.601 56.9154 29.3814 56.9154 28.5498C56.9154 27.8574 56.0574 27.0846 55.2294 26.5854C54.399 26.1984 52.5402 25.809 51.546 25.809Z" fill="white"/>
<path d="M24.186 33.8412C24.186 35.5596 23.748 36.471 22.359 36.5532L22.392 36.8316C24.714 36.804 27.0744 36.8316 29.3406 36.7788L29.3682 36.6372C28.32 36.6372 27.5112 35.5272 27.5112 34.1472V29.5212C27.5112 28.3872 28.893 27.663 29.8392 27.75C31.3032 27.8844 32.1096 28.8252 32.1096 29.6598V34.2018C32.1096 35.5878 31.692 36.447 30.6144 36.5256V36.7788H36.9864V36.5826C36.0396 36.471 35.376 35.6106 35.376 34.3104V29.5464C35.376 28.5234 36.2652 27.8316 37.8432 27.8046C39.2292 27.7746 40.0602 28.8006 40.0602 29.7708V34.0884C40.0602 35.5596 39.6174 36.471 38.5122 36.5826V36.7788C40.6889 36.8044 42.8659 36.8044 45.0426 36.7788V36.6372C43.8258 36.6372 43.4142 35.8332 43.4142 34.1472V29.3808C43.4142 27.8046 42.5526 25.9194 40.1418 25.9194C38.5116 25.9194 37.3122 26.721 36.6288 26.9484C36.156 27.138 35.8212 27.3588 35.7066 27.3588C35.4924 27.3588 35.244 27.2226 34.935 26.8908C34.3518 26.2746 33.3048 25.9194 32.193 25.9194C30.78 25.9194 29.3682 26.721 28.7004 26.9484C28.6224 26.9742 28.1226 27.2226 28.0656 27.2226C27.9576 27.2226 27.5112 27.2226 27.5112 27.1686C27.5112 25.8396 27.5952 26.5014 27.54 25.5618H26.625C26.3532 25.5618 25.8732 26.0598 25.323 26.2746C24.6582 26.5554 23.3274 26.5254 22.779 26.67V27.609L24.2148 27.885V29.7144L24.186 33.8412Z" fill="white"/>
<path d="M17.9538 36.804C20.3964 36.6942 22.7472 36.165 22.7472 33.8124C22.7472 32.0988 20.8638 31.0164 18.8748 30.1584C17.595 29.631 15.7416 28.8552 15.7416 28.2462C15.7416 27.5262 17.1516 26.1408 18.5112 27.2484L20.8638 29.2152L21.9468 28.9932L21.342 26.0592C20.784 26.0862 20.3964 26.1168 18.3732 25.7808C15.8772 25.4214 12.915 26.67 12.915 28.9938C12.915 30.546 15.1614 31.6248 16.935 32.346C17.9022 32.7612 19.6218 33.372 19.6218 34.3104C19.6218 35.2248 18.0138 35.4768 17.1018 35.4768C15.549 35.4768 13.8288 33.3972 13.8288 33.3972H12.8088L13.362 36.5028C13.5516 36.333 14.2482 36.3606 14.388 36.4182C14.8842 36.6072 16.6854 36.8886 17.9538 36.804ZM12.0822 27.3876V25.9482L9.0654 25.9758C8.6814 25.9758 8.7054 25.8918 8.7054 25.3938L8.7354 23.4252L7.2114 23.4C6.7434 24.4488 6.1602 25.1442 5.8296 25.284L3 26.526V27.4146L4.0584 27.4446C4.5294 27.4446 4.7208 27.4146 4.7208 27.9708V33.8124C4.7208 35.5884 5.6886 36.8886 8.187 36.9432C10.0626 36.9972 11.2026 36.165 12.003 35.3922L11.7834 34.6422C11.4474 34.8666 11.1756 35.0592 10.7292 35.0592C8.5986 35.0592 8.6544 33.3972 8.6544 31.9278V27.9708C8.6544 27.3876 8.7054 27.3876 9.096 27.3876H12.0822Z" fill="white"/>
</g>
<defs>
<clipPath id="clip0_150_893">
<rect width="60" height="60" fill="white"/>
</clipPath>
</defs>
</svg>
