<svg width="60" height="60" viewBox="0 0 60 60" fill="none" xmlns="http://www.w3.org/2000/svg">
<rect width="60" height="60" fill="#E82127"/>
<g clip-path="url(#clip0_150_662)">
<path d="M30.0019 48.5962L34.9122 21.2594C39.5926 21.2594 41.0689 21.7674 41.2821 23.8411C41.2821 23.8411 44.4218 22.6823 46.0054 20.3287C39.8258 17.4941 33.6168 17.3663 33.6168 17.3663L29.9938 21.7345L30.0019 21.734L26.3789 17.3656C26.3789 17.3656 20.1697 17.4936 13.991 20.3281C15.5732 22.6817 18.7142 23.8406 18.7142 23.8406C18.9286 21.7667 20.4031 21.2587 25.0521 21.2554L30.0019 48.5962Z" fill="white"/>
<path d="M30 16.1045C34.9953 16.0667 40.7129 16.8695 46.5661 19.3948C47.3484 18.0009 47.5495 17.3849 47.5495 17.3849C41.1511 14.8791 35.1592 14.0215 29.9993 14C24.8397 14.0215 18.848 14.8792 12.4505 17.3849C12.4505 17.3849 12.7359 18.1437 13.4332 19.3948C19.2853 16.8695 25.0039 16.0667 29.9993 16.1045H30Z" fill="white"/>
</g>
<defs>
<clipPath id="clip0_150_662">
<rect width="36" height="35" fill="white" transform="translate(12 14)"/>
</clipPath>
</defs>
</svg>
